<svg xmlns="http://www.w3.org/2000/svg" viewBox="0 0 223 341"><ellipse transform="rotate(38.055 29.46 30.483)" fill="#FFF" cx="29.5" cy="30.5" rx="29.2" ry="22.5"/><path fill="#FFF" d="M219.9 64.7l-1.8-7.9-3.7-3.8-3.4-3.2-5.1-2-9.7-.1-5.5 1.5-7.9 6.3-3.8 6.6-4.5 5.1-4.8 2.3-2.7-.8-3-3.7-6.9-4.4-7.2-2.1-1.7-3-2-3.4-1.6-2.4-4.2-4.1-5.6-3.4-6.8-2.5h-6.9l-2.4-3.1-6.2-2.7-5.3-2.3-6.1-1.1h-6.3l-3.5-2-5.1-4.8-3.1-1.5-6.4-2.2-5.7-1.7-6.3-2-17-3.9L38.3 9h-2.8l-3-1.5H28l-3.1-1.8-1.7-1.4-2-1L19 1.6h-2.7l-1.5 1.7H11L10.3 5H7.8l-.9 1.1-1 .4-1.5.7.1 2.3.5 2.4.8 1 1.3.1.6-.7 1.1-1 1.5-.1 1 .7.8 1 1.3.4-.3 1.3-4.2-.1H5.7l-1.3.4-.6 1.6v1.4L6 19.4h6.2l3.8.1 2.5.6 3.1.7s3.7 0 4.1.1c.4.1 3.2-.8 3.2-.8h3.5l3.2 2 5.3 2.4 7.7 4.9 14.2 8.2 2.8 2.5 5.8 3.1 5.1 1.5 12 4.2 7 3.7 3.9 3.8 6.2 3.8 9.1 3.2 4.2 1.8-.1 1.7-2 2.3-5.3 4.6-3.1 4.5-7.3 7-6.1 8.6-2.5 8.6-3.2 12.7-3.9 5.1-3.5 9.6-7.9 7s-4.9 8.2-5.1 8.6c-.1.4-3.4 7.6-3.5 8-.1.4-1.1 8.9-1.1 8.9l.4 8.6 1.5 8.3 2.7 4.5 5.2 5.1 3.1 2.7 5.6 1.3 2.5 1.3 14.4 14.9 2 4.6 4.2 8.7 8.2 8.9 7 5.6-.1 4.1-3.1 3.5-5.4 5.8-4 1.5-6.5 1.8-6.8 3-5.6 4.1-6.3 6.9-4.9 4.8-10 7-7.7 4.6-4.1 1.8-6.8 1.1-5.9 2.3-2.3 3.2.3 4.2 1.1 2.7 2.8 3.8.1 10.7-3.1 3.8-3.1 3.9.3 3.7.4 3.2 1.3 2.4 4.3 2.8 4.8.5 6.2-.2 2.2-2.9-6.8-3.7 3.7-5.2 4.2-6.5 3.1-7.2 4.9-6.8 7-5.5 9.7-4.8 14.5-3.8 9.7-4.2 9.6-6.1 3.8-3.4 1 .6.7 1.8.3 10.6 1.5 7.2.6 22.2-1.3 5.9s-1.4 4.4-2 4.8c-.6.4-.3 4.6-.3 4.6l1.1 2.4 3.1 1 7.7-.4 7.2 1.5 10 .6 3.8 1.1h3.1l1.8.3 4.9.8 2.8.4h3.1l1.5.1 1.5.5 2.4-.4.9-2.4-1.5-4.8-1.1-3.4-7.7-2.7-8.3-3.2-10.4-4.6-2.3-3.1-1.4-3.5-1.4-3.9-.3-7.9 1.4-9.9 2.5-13.7 3.1-18.3 1.1-23.6 6.8-8.6 3-6.8 4.2-3.5 7.5-6.2 6.5-7.3 3.9-8.3 1.7-6.9.6-4.5v-5.4l.6-4.8.7-6.3 1.4-4.2.4-2.7.1-4.2-.1-2.8-.6-2.4-.2-2.8 1.2-3.1 1.4-3.1 1.4-5.8.7-7.5-.3-4.8-2.4-4.4-3.2-3-.8-1.8-.7-1.7-.6-2.8-.1-4.1-.7-2.3-2.5-2.5.3-3.4 2.4 1.3 5.6-2.5h4.2l1.8-1.7 3.5-2.3 3.9-.1 4.2-1.7h2.8l1.4-1.4 2-1.8 3.7-.7 2-5.3 2.1-7.6-1.6-7.9zm-51.4 115.4l-4.6 6.2-2 6.9-3.4 6.2-8 6.3-6.6-6.1-3.9-6.5-3.4-4.8-5.9-6.5-5.6-6.1s-2-3.1-2.7-3.7c-.7-.6-1.3-1.9-1.3-1.9l-1-4.3s1.8-7 2.4-7.3c.6-.3 3.8-5.6 3.8-5.6l5.6-4.6 1.7-2 5.9-3.7 5.6-3.2 5.6-2h9.3l6.6-1.5h1.3l-.1 2.8-.7 4.6-1 4.5-.3 5.5-.3 6.3.6 7 2.4 7v6.5z"/></svg>